<svg version="1.1" xmlns="http://www.w3.org/2000/svg" width="189" height="150" viewBox="437 450 126 100">
  <text font-size="0">M548x535S10019452x474S10011476x465S2ea04481x501S2ea48459x509S29b0b514x500S15a0a515x473S1eb20524x489-CP15G_lightblue_D_x,lightblue_Z1.5</text>
  <rect x="437" y="450" width="126" height="100" style="fill:lightblue;" />
  <svg x="452" y="474"><g transform="translate(0.0510391045243,29.9008597381) scale(0.00989444017531,-0.00992010945328)"><path class="sym-fill" fill="lightblue" d="M1204 1296 c-54 -58 -213 -222 -351 -365 l-253 -259 193 -197 192 -198 353 363 352 362 -89 97 c-49 53 -136 142 -193 199 l-104 103 -100 -105z"/><path class="sym-line" fill="#0000CC" d="M1080 2109 c-476 -489 -911 -938 -968 -998 l-102 -108 480 -494 c264 -272 487 -494 495 -494 8 0 231 222 495 494 l481 495 -59 60 c-32 34 -221 228 -419 431 l-361 371 485 498 485 498 -68 69 c-38 38 -71 69 -74 68 -3 0 -394 -401 -870 -890z m424 -906 c103 -106 186 -197 184 -202 -7 -18 -692 -716 -703 -716 -7 0 -97 87 -200 193 l-187 192 48 53 c126 136 659 677 664 675 4 -2 91 -90 194 -195z"/></g></svg>
  <svg x="476" y="465"><g transform="translate(0.0827624000386,29.8972374025) scale(0.00988338120185,-0.00991626663417)"><path class="sym-fill" fill="lightblue" d="M601 1204 l-191 -197 42 -46 c23 -25 182 -189 353 -365 l310 -318 193 197 193 198 -128 131 c-71 72 -230 236 -355 363 l-226 233 -191 -196z"/><path class="sym-line" fill="#0000CC" d="M76 2931 l-69 -69 486 -498 485 -498 -371 -381 c-204 -209 -393 -403 -419 -431 l-49 -51 481 -494 c264 -272 487 -494 495 -494 8 0 231 222 495 494 l481 494 -49 51 c-152 158 -1893 1946 -1895 1946 -2 0 -33 -31 -71 -69z m1020 -1838 c165 -170 324 -334 353 -365 l54 -58 -188 -192 c-104 -106 -194 -193 -200 -193 -12 0 -696 698 -703 716 -4 9 367 398 379 399 3 0 140 -138 305 -307z"/></g></svg>
  <svg x="481" y="501"><g transform="translate(0.149734255248,24.7501251158) scale(0.0097007872376,-0.00984067504631)"><path class="sym-line" fill="#CC0000" d="M345 2481 c-157 -72 -271 -271 -325 -565 -18 -101 -20 -153 -20 -666 0 -513 2 -565 20 -666 54 -294 168 -493 325 -565 34 -16 66 -19 206 -19 158 0 167 1 217 26 73 36 164 139 212 239 38 79 80 196 80 222 0 10 -39 13 -198 13 l-197 0 -23 -92 c-27 -111 -77 -221 -122 -265 -66 -67 -143 -33 -202 89 -92 189 -118 411 -118 1018 0 607 26 829 118 1018 115 236 269 121 342 -255 11 -57 20 -106 20 -109 0 -2 90 -4 200 -4 153 0 200 3 200 13 0 31 -43 186 -70 252 -58 147 -159 273 -253 315 -36 17 -66 20 -207 20 -139 0 -171 -3 -205 -19z M595 1500 l300 -300 -300 0 -300 0 303 -302 302 -303 302 303 303 302 -300 0 -300 0 300 300 300 300 -605 0 -605 0 300 -300z"/></g></svg>
  <svg x="459" y="509"><g transform="translate(0.165343472914,24.7501251158) scale(0.00972320125617,-0.00984067504631)"><path class="sym-fill" fill="lightblue" d="M838 1552 l-136 -147 145 -3 c79 -1 207 -1 283 0 l138 3 -136 147 c-76 80 -141 146 -147 146 -5 0 -71 -66 -147 -146z M838 952 l-136 -147 145 -3 c79 -1 207 -1 283 0 l138 3 -136 147 c-76 80 -141 146 -147 146 -5 0 -71 -66 -147 -146z"/><path class="sym-line" fill="#CC0000" d="M324 2481 c-146 -66 -261 -282 -309 -581 -22 -139 -22 -1161 0 -1300 48 -299 163 -515 309 -581 34 -16 66 -19 196 -19 153 0 156 0 206 30 123 70 221 245 274 488 l18 82 -99 0 -99 0 0 -26 c0 -50 -41 -228 -71 -304 -37 -96 -92 -160 -137 -160 -96 0 -182 196 -217 495 -22 186 -22 1104 0 1290 35 299 121 495 217 495 69 0 144 -130 183 -315 9 -44 18 -90 21 -102 4 -22 9 -23 94 -23 82 0 90 2 90 19 0 41 -53 201 -95 286 -54 108 -110 176 -179 215 -50 30 -53 30 -206 30 -130 0 -162 -3 -196 -19z M717 1575 l-257 -275 520 0 c286 0 520 2 520 5 0 11 -501 540 -513 542 -7 2 -128 -121 -270 -272z m484 -97 l71 -78 -287 0 -288 0 44 48 c24 26 88 96 144 155 l100 108 73 -78 c39 -43 104 -113 143 -155z M717 975 l-257 -275 520 0 c286 0 520 2 520 5 0 11 -501 540 -513 542 -7 2 -128 -121 -270 -272z m484 -97 l71 -78 -287 0 -288 0 44 48 c24 26 88 96 144 155 l100 108 73 -78 c39 -43 104 -113 143 -155z"/></g></svg>
  <svg x="514" y="500"><g transform="translate(-0.0397971458221,34.7731705478) scale(0.00994576968395,-0.00994776568665)"><path class="sym-fill" fill="lightblue" d="M200 3057 c0 -397 1 -428 21 -508 22 -87 68 -190 118 -263 52 -75 174 -181 252 -220 137 -66 157 -69 614 -70 l410 -1 55 -26 c105 -49 187 -158 210 -278 6 -31 10 -233 10 -477 l0 -424 171 0 171 0 -5 478 c-4 448 -5 482 -25 555 -69 250 -237 435 -472 518 -63 23 -75 24 -486 26 -406 2 -423 3 -480 24 -72 27 -155 106 -189 181 -41 90 -45 155 -38 546 l6 362 -171 0 -172 0 0 -423z"/><path class="sym-line" fill="#CC0000" d="M23 3033 c4 -488 6 -503 67 -660 39 -103 91 -190 166 -278 78 -91 165 -157 279 -210 162 -77 169 -78 625 -82 223 -2 415 -6 427 -8 34 -8 84 -55 104 -100 17 -37 19 -74 19 -467 l0 -428 -190 0 c-104 0 -190 -4 -190 -8 0 -12 710 -787 724 -790 7 -1 176 176 376 395 l364 398 -197 3 -197 2 0 469 c0 384 -3 484 -16 551 -69 367 -338 654 -677 724 -61 13 -149 16 -454 16 -217 0 -393 4 -413 10 -41 11 -94 61 -109 103 -7 18 -11 167 -11 418 l0 389 -90 0 -91 0 3 -417 3 -418 32 -67 c36 -76 99 -142 170 -179 l48 -24 440 -6 c431 -5 441 -6 505 -29 182 -66 321 -192 405 -365 79 -164 78 -159 83 -702 l3 -483 -177 0 -177 0 6 407 c3 225 2 436 -3 470 -20 148 -117 271 -245 313 -31 10 -138 14 -455 14 -376 1 -420 3 -470 20 -245 82 -407 253 -487 513 l-27 88 -4 433 -4 432 -84 0 -85 0 4 -447z"/></g></svg>
  <svg x="515" y="473"><g transform="translate(0.150976194493,11.7516936221) scale(0.00983400277537,-0.00966938010173)"><path class="sym-fill" fill="lightblue" d="M200 600 l0 -400 908 0 907 0 200 200 200 200 -200 200 -200 200 -907 0 -908 0 0 -400z"/><path class="sym-line" fill="#0000CC" d="M0 600 l0 -600 1053 0 1052 0 300 300 300 300 -300 300 -300 300 -1052 0 -1053 0 0 -600z m2225 200 l200 -200 -200 -200 -200 -200 -912 0 -913 0 0 400 0 400 913 0 912 0 200 -200z"/></g></svg>
  <svg x="524" y="489"><g transform="translate(0.151007603865,18.7536338034) scale(0.00983243230676,-0.009834043508)"><path class="sym-line" fill="#0000CC" d="M343 1885 c-211 -57 -343 -248 -343 -497 0 -245 129 -411 366 -472 41 -11 106 -16 196 -16 146 0 223 14 295 55 l43 24 0 -490 0 -489 750 0 750 0 0 750 0 750 -652 2 -652 3 -12 48 c-42 164 -170 285 -350 332 -76 20 -318 19 -391 0z m371 -212 c179 -58 239 -341 101 -479 -64 -63 -136 -87 -265 -87 -133 -1 -196 18 -255 78 -103 103 -115 298 -25 407 35 43 117 86 187 98 64 12 196 3 257 -17z"/></g></svg>
</svg>